<svg id="_03" data-name="03" xmlns="http://www.w3.org/2000/svg" width="96.02mm" height="96.33mm" viewBox="0 0 272.18 273.05">
  <title>003 datamicrobe</title>
  <g>
    <path d="M737.28,368.85c637.24-104.54-87.94-557.84,0,0" transform="translate(-729.76 -96.01)" style="fill: #f4e594"/>
    <path d="M737.28,369.06c528.71-132,100.77-407.8,0,0" transform="translate(-729.76 -96.01)" style="fill: #b258b7;opacity: 0.67"/>
    <path d="M892.23,203.76c18.92-13.25,27.32-8.09,59.24.58,35.62,9.69,29-15.7,29-15.7-20.49,5.08-44.08-21.77-67.26-17.34C885.07,176.68,892.23,203.76,892.23,203.76Z" transform="translate(-729.76 -96.01)" style="fill: #f2f0d9;opacity: 0.67"/>
    <path d="M905.88,182.58c12-3.08,29.44,8.25,49.63,13.86,22.52,6.27,22.51-4,22.51-4-7.21,4.55-29.41-7.75-49.55-13C906,173.51,905.88,182.58,905.88,182.58Z" transform="translate(-729.76 -96.01)" style="fill: #54583b"/>
  </g>
</svg>
